<?xml version="1.0" encoding="utf-8"?>
<!-- Generator: Adobe Illustrator 27.5.0, SVG Export Plug-In . SVG Version: 6.00 Build 0)  -->
<svg version="1.1" xmlns="http://www.w3.org/2000/svg" xmlns:xlink="http://www.w3.org/1999/xlink" x="0px" y="0px"
	 viewBox="0 0 750 500" style="enable-background:new 0 0 750 500;" xml:space="preserve">
<g id="BACKGROUND">
</g>
<g id="OBJECTS">
	<path style="opacity:0.27;fill:#7229B5;" d="M113.034,428.526c3.463,2.582,9.536,4.435,15.524,6.198h498.603
		c0.76-0.465,1.5-0.966,2.195-1.544c4.371-3.635,6.677-9.133,8.636-14.471c9.457-25.765,14.587-53.541,11.274-80.786
		c-3.313-27.246-15.627-53.924-36.64-71.58c-10.72-9.007-23.435-15.543-33.489-25.288c-30.875-29.925-31.309-84.183-66.742-108.54
		c-16.325-11.222-37.232-13.621-56.999-12.316c-18.466,1.219-37.006,5.49-52.987,14.822c-16.689,9.746-29.776,24.452-43.645,37.912
		c-27.799,26.98-61.56,50.418-100.038,54.905c-24.475,2.854-49.246-2.146-73.841-0.644c-26.845,1.64-53.157,11.227-74.765,27.241
		c-13.837,10.255-26.006,23.496-32.014,39.638c-8.889,23.883-3.278,50.674,5.31,74.666
		C89.343,385.293,98.606,417.768,113.034,428.526z"/>
	<path style="opacity:0.27;fill:#7229B5;" d="M614.854,360.516c-13.108,24.592-26.314,49.133-39.433,73.718
		c-1.766,3.309-3.647,6.75-6.751,8.857c-4.007,2.721-9.209,2.683-14.051,2.545c-26.231-0.747-52.401-1.223-78.63-1.463
		c-60.396-0.551-120.792-1.102-181.188-1.653c-27.099-0.247-54.198-0.494-81.296-0.742c-17.726-0.162-35.359,0.517-53.048,0.568
		c-8.994,0.026-18.541-1.694-25.191-7.75c-5.53-5.036-8.302-12.353-10.706-19.437c-12.943-38.135-20.736-78.011-23.136-118.21
		c-2.058-34.482,5.614-69.31,33.229-92.514c10.291-8.646,22.496-14.921,32.148-24.275c29.638-28.727,30.055-80.812,64.069-104.193
		c15.672-10.773,35.741-13.076,54.716-11.823c17.726,1.17,35.524,5.271,50.865,14.229c16.02,9.355,28.584,23.473,41.897,36.394
		c26.685,25.899,59.095,48.399,96.032,52.706c23.495,2.74,47.274-2.06,70.884-0.618c25.77,1.574,51.028,10.777,71.771,26.15
		c13.283,9.845,24.965,22.555,30.732,38.051c12.602,33.857-1.135,69.377-17.036,99.527
		C625.463,340.574,620.166,350.549,614.854,360.516z"/>
	<g>
		<path style="fill:#7229B5;" d="M249.559,377.6l-4.806,12.022l-1.191,0.194l-11.565,1.911c0,0-66.165,12.244-59.627-9.737
			c3.047-10.222,11.731-14.197,20.139-15.54c-17.687-1.399-42.84-6.219-53.325-21.94c-16.981-25.444,28.727-24.918,28.727-24.918
			s-79.102-38.034-37.272-72.038c0.443-0.346,0.887-0.693,1.316-1.011c41.344-30.61,63.395,60.043,63.395,60.043
			s6.842-51.816,28.048-29.779c13.089,13.629,12.396,39.225,9.959,56.802c3.116-7.936,8.879-15.554,19.516-16.33
			C275.737,315.617,249.559,377.6,249.559,377.6z"/>
		<g style="opacity:0.43;">
			
				<line style="fill:none;stroke:#FFFFFF;stroke-linecap:round;stroke-linejoin:round;stroke-miterlimit:10;" x1="244.753" y1="389.622" x2="142.474" y2="260.358"/>
			<polyline style="fill:none;stroke:#FFFFFF;stroke-linecap:round;stroke-linejoin:round;stroke-miterlimit:10;" points="
				220.217,299.908 210.23,345.991 158.933,344.229 			"/>
			<polyline style="fill:none;stroke:#FFFFFF;stroke-linecap:round;stroke-linejoin:round;stroke-miterlimit:10;" points="
				247.698,332.965 232.202,373.76 183.47,380.602 			"/>
		</g>
	</g>
	<g>
		<g>
			<g>
				<g>
					<polygon style="fill:#FAAD3B;" points="323.039,293.839 323.039,337.4 320.061,336.5 288.149,326.776 288.149,278.839 
						291.722,280.376 310.49,288.438 					"/>
					<g style="opacity:0.75;">
						<path style="fill:#F5E073;" d="M320.061,336.5l-31.912-9.723v-47.937l3.573,1.537l13.878,9.446
							c0,0-7.438,27.175,10.997,42.273C318.717,333.827,319.812,335.281,320.061,336.5z"/>
					</g>
				</g>
				<g>
					<ellipse style="fill:#7229B5;" cx="338.229" cy="247.494" rx="12.738" ry="14.521"/>
					<g>
						<path style="fill:#FAAD3B;" d="M314.05,298.115c-0.2,0.02-0.41,0.04-0.62,0.05c-1.44,0.08-2.95,0.09-4.53,0.04
							c-37.37-1.45-33.71-59.7-30.71-83.17c0-0.02,0-0.04,0.01-0.05c0.75-5.91,1.46-9.6,1.46-9.6l17.85-5.2l11.39-3.33l19.22,8.53
							l15.4,27.4c0,0,0.7,3.83,1.12,9.62c0.04,0.59,0.08,1.19,0.12,1.82c0,0.12,0.01,0.25,0.01,0.37v0.05
							C345.76,262.835,343.44,295.835,314.05,298.115z"/>
						<g>
							<path style="fill:#381459;" d="M311.839,255.284c0,2.364-1.316,4.28-2.94,4.28c-1.624,0-2.94-1.916-2.94-4.28
								c0-2.364,1.316-4.28,2.94-4.28C310.522,251.004,311.839,252.921,311.839,255.284z"/>
							<path style="fill:#381459;" d="M335.376,255.284c0,2.364-1.316,4.28-2.94,4.28c-1.624,0-2.94-1.916-2.94-4.28
								c0-2.364,1.316-4.28,2.94-4.28C334.059,251.004,335.376,252.921,335.376,255.284z"/>
							<path style="fill:none;stroke:#381459;stroke-linecap:round;stroke-linejoin:round;stroke-miterlimit:10;" d="
								M327.479,255.284c0,0-3.62,7.399-1.371,10.767c2.25,3.368,3.372,6.062-2.016,7.971"/>
							<path style="fill:none;stroke:#381459;stroke-linecap:round;stroke-linejoin:round;stroke-miterlimit:10;" d="
								M301.639,272.787c0,0,6.848,10.835,19.647,6.933"/>
							<path style="fill:none;stroke:#381459;stroke-linecap:round;stroke-linejoin:round;stroke-miterlimit:10;" d="
								M303.498,245.843c0,0,1.462-3.687,5.773-3.181c3.801,0.446,4.641,3.181,4.641,3.181"/>
							<path style="fill:none;stroke:#381459;stroke-linecap:round;stroke-linejoin:round;stroke-miterlimit:10;" d="
								M329.267,247.105c0,0,1.143-2.883,4.513-2.487c2.972,0.349,3.629,2.487,3.629,2.487"/>
						</g>
						<g style="opacity:0.75;">
							<path style="fill:#F5E073;" d="M345.71,244.645c0,0-0.07,0-0.18,0c-0.15,0-0.41-0.02-0.76-0.05
								c-5.65-0.55-35.23-5.15-43.41-15.62c0,0-26.03,58.82,12.69,69.14c-0.2,0.02-0.41,0.04-0.62,0.05
								c-1.44,0.08-2.95,0.09-4.53,0.04c-37.37-1.45-33.71-59.7-30.71-83.17c0-0.02,0-0.04,0.01-0.05c1.19-5.91,2.22-9.6,2.22-9.6
								l17.85-5.2l13.18,2.11l18.79,10.84l5.92,11.8l8.48,17.47l0.88,1.82L345.71,244.645z"/>
						</g>
						<path style="fill:#381459;" d="M298.954,218.699c0,0,17.345,25.294,45.996,25.945c0,0,10.059-66.563-52.211-53.36
							c-22.494,7.202-26.279,21.312-19.062,60.92C273.678,252.204,293.575,236.187,298.954,218.699z"/>
						<path d="M282.654,195.767c-11.306,15.739-9.803,41.986-9.782,42.259l-1.051,0.074c-0.021-0.284-1.408-24.513,8.479-40.683
							C281.036,196.838,281.824,196.292,282.654,195.767z"/>
					</g>
				</g>
				<g>
					<g>
						<g>
							<path style="fill:none;stroke:#7229B5;stroke-linecap:round;stroke-linejoin:round;stroke-miterlimit:10;" d="
								M280.08,261.272c0,0,1.864,12.238,12.371,17.567"/>
							<path style="fill:#7229B5;" d="M300.595,279.72c0,1.867-2.044,3.381-4.565,3.381c-2.521,0-4.565-1.514-4.565-3.381
								s2.044-3.381,4.565-3.381C298.551,276.34,300.595,277.853,300.595,279.72z"/>
						</g>
						<g>
							<ellipse style="fill:#7229B5;" cx="277.742" cy="249.614" rx="12.738" ry="14.521"/>
							<ellipse style="fill:#62239C;" cx="273.678" cy="249.614" rx="10.363" ry="11.659"/>
						</g>
					</g>
					<g>
						<path style="fill:#7229B5;" d="M335.252,200.673c-1.145-1.334-2.427-2.595-3.846-3.74
							c-5.758-7.439-13.922-12.892-25.448-12.903c-8.416,0.01-15.351,2.858-20.678,8.521c-0.946,1.009-1.818,2.08-2.627,3.215
							c-11.306,15.739-9.803,41.986-9.782,42.259l-1.051,0.074c-0.021-0.284-1.408-24.513,8.479-40.683
							c1.219-2.007,2.616-3.888,4.213-5.579c5.527-5.873,12.724-8.857,21.403-8.857h0.042
							C320.07,183.001,329.274,190.881,335.252,200.673z"/>
					</g>
				</g>
			</g>
			<g>
				<path style="fill:#F5E073;" d="M389.689,425.518l-10.624-0.18l-132.178-2.244l1.649-107.178l20.318-4.417
					c0.014,0,0.014,0,0.014,0l19.28-4.515c0,0,26.109,38.754,39.184,3.463l49.78,16.288L389.689,425.518z"/>
				<g style="opacity:0.75;">
					<path style="fill:#F5E073;" d="M259.184,348.314c0,0,26.428,66.947,102.771,65.393l-119.173-5.204l1.449-45.317
						L259.184,348.314z"/>
				</g>
				
					<line style="fill:none;stroke:#7229B5;stroke-linecap:round;stroke-linejoin:round;stroke-miterlimit:10;" x1="312.098" y1="325.275" x2="311.45" y2="413.196"/>
				<path style="fill:#FAAD3B;" d="M210.799,377.448l-0.568,36.322c-0.093,5.942,4.634,10.842,10.576,10.962l134.016,2.709v-11.903
					l-104.381-12.575l1.421-27.002L210.799,377.448z"/>
				<path style="fill:#7229B5;" d="M288.144,306.986l23.954,18.289c0,0-3.031,1.585-11.024,10.273l-32.212-24.056L288.144,306.986z"
					/>
				<polygon style="fill:#7229B5;" points="312.098,325.275 322.223,333.365 335.17,313.018 323.037,309.048 				"/>
				<path style="fill:none;stroke:#7229B5;stroke-linecap:round;stroke-linejoin:round;stroke-miterlimit:10;" d="M279.756,389.944
					h-3.775c-7.011,0-12.695-5.684-12.695-12.695v-16.47h29.165v16.47C292.451,384.26,286.767,389.944,279.756,389.944z"/>
				<path style="fill:#F5E073;" d="M257.746,380.6h-50.541c0-50.735,25.361-61.622,36.801-63.949h0.014
					c3.31-0.665,6.174-1.096,6.174-1.096C262.882,324.116,257.746,380.6,257.746,380.6z"/>
				<path style="fill:none;stroke:#7229B5;stroke-linecap:round;stroke-linejoin:round;stroke-miterlimit:10;" d="M257.742,380.602
					c0,0,3.243-26.82,0-39.584"/>
			</g>
			<polyline style="fill:none;stroke:#7229B5;stroke-linecap:round;stroke-linejoin:round;stroke-miterlimit:10;" points="
				251.62,380.602 250.443,402.962 299.498,409.203 			"/>
		</g>
	</g>
	<g>
		<g>
			<g>
				<g>
					<path style="fill:#7229B5;" d="M655.891,296.945c0,0-22.013-26.814-10.992-28.241c9.872-1.279,10.878,22.393,10.98,27.343
						C655.891,296.623,655.891,296.945,655.891,296.945z"/>
				</g>
				<g>
					<path style="fill:#7229B5;" d="M656.199,296.584c0,0,26.814-22.013,28.241-10.992
						C685.867,296.613,656.199,296.584,656.199,296.584z"/>
				</g>
				<g>
					<path style="fill:#7229B5;" d="M646.079,317.835c0,0-22.013-26.814-10.992-28.241
						C646.108,288.166,646.079,317.835,646.079,317.835z"/>
				</g>
				<g>
					<path style="fill:#7229B5;" d="M646.047,317.935c0,0,26.813-22.013,28.241-10.992
						C675.715,317.963,646.047,317.935,646.047,317.935z"/>
				</g>
				<g>
					<path style="fill:#7229B5;" d="M635.641,335.024c0,0-19.312-23.524-9.644-24.776
						C635.666,308.996,635.641,335.024,635.641,335.024z"/>
				</g>
				<g>
					<path style="fill:#7229B5;" d="M635.382,334.967c0,0,23.524-19.312,24.776-9.643
						C661.41,334.993,635.382,334.967,635.382,334.967z"/>
				</g>
				<g>
					<path style="fill:#7229B5;" d="M623.732,350.695c0,0-15.109-24.19-5.973-24.188
						C626.895,326.51,623.732,350.695,623.732,350.695z"/>
				</g>
				<g>
					<path style="fill:#7229B5;" d="M623.288,350.352c0,0,24.19-15.109,24.188-5.973
						C647.474,353.515,623.288,350.352,623.288,350.352z"/>
				</g>
				<g>
					<g>
						<path style="fill:#7229B5;" d="M610.293,364.723c0,0-8.341-27.275,0.483-24.91
							C619.601,342.177,610.293,364.723,610.293,364.723z"/>
					</g>
					<g>
						<path style="fill:#7229B5;" d="M610.261,364.365c0,0,27.274-8.342,24.91,0.483
							C632.806,373.673,610.261,364.365,610.261,364.365z"/>
					</g>
				</g>
				<g>
					<g>
						<path style="fill:#7229B5;" d="M596.919,376.228c0,0-7.232-23.647,0.419-21.597
							C604.989,356.681,596.919,376.228,596.919,376.228z"/>
					</g>
					<g>
						<path style="fill:#7229B5;" d="M596.681,375.641c0,0,23.647-7.232,21.596,0.419
							C616.228,383.711,596.681,375.641,596.681,375.641z"/>
					</g>
				</g>
				<g>
					<g>
						<path style="fill:#7229B5;" d="M585.953,384.27c0,0-6.177-20.196,0.358-18.445C592.845,367.576,585.953,384.27,585.953,384.27
							z"/>
					</g>
					<g>
						<path style="fill:#7229B5;" d="M585.639,383.673c0,0,20.196-6.176,18.445,0.358
							C602.333,390.566,585.639,383.673,585.639,383.673z"/>
					</g>
				</g>
			</g>
		</g>
		<path style="fill:#7229B5;" d="M655.221,298.426c0,0,7.637-35.092,14.318-32.707C676.219,268.103,655.221,298.426,655.221,298.426
			z"/>
		<path style="fill:none;stroke:#7229B5;stroke-miterlimit:10;" d="M658.228,291.217c0,0-24.867,78.629-103.006,107.819"/>
	</g>
	<g>
		<g>
			<g>
				<g>
					<path style="fill:#7229B5;" d="M69.619,290.604c0,0,26.535-22.349,15.959-25.763c-9.473-3.058-14.78,20.034-15.783,24.881
						C69.677,290.287,69.619,290.604,69.619,290.604z"/>
				</g>
				<g>
					<path style="fill:#7229B5;" d="M69.382,290.193c0,0-22.349-26.534-25.762-15.959C40.206,284.809,69.382,290.193,69.382,290.193
						z"/>
				</g>
				<g>
					<path style="fill:#7229B5;" d="M75.456,312.933c0,0,26.534-22.349,15.959-25.763C80.839,283.757,75.456,312.933,75.456,312.933
						z"/>
				</g>
				<g>
					<path style="fill:#7229B5;" d="M75.47,313.037c0,0-22.349-26.534-25.762-15.959C46.294,307.653,75.47,313.037,75.47,313.037z"
						/>
				</g>
				<g>
					<path style="fill:#7229B5;" d="M82.583,331.737c0,0,23.279-19.607,14.001-22.602C87.306,306.141,82.583,331.737,82.583,331.737
						z"/>
				</g>
				<g>
					<path style="fill:#7229B5;" d="M82.849,331.729c0,0-19.607-23.279-22.602-14.001C57.252,327.006,82.849,331.729,82.849,331.729
						z"/>
				</g>
				<g>
					<path style="fill:#7229B5;" d="M91.435,349.318c0,0,19.268-21.029,10.285-22.693C92.736,324.962,91.435,349.318,91.435,349.318
						z"/>
				</g>
				<g>
					<path style="fill:#7229B5;" d="M91.934,349.062c0,0-21.029-19.268-22.693-10.285C67.577,347.76,91.934,349.062,91.934,349.062z
						"/>
				</g>
				<g>
					<g>
						<path style="fill:#7229B5;" d="M102.09,365.561c0,0,13.176-25.296,4.068-24.581C97.05,341.696,102.09,365.561,102.09,365.561z
							"/>
					</g>
					<g>
						<path style="fill:#7229B5;" d="M102.186,365.216c0,0-25.295-13.177-24.58-4.069
							C78.321,370.255,102.186,365.216,102.186,365.216z"/>
					</g>
				</g>
				<g>
					<g>
						<path style="fill:#7229B5;" d="M113.141,379.313c0,0,11.424-21.931,3.527-21.311
							C108.771,358.622,113.141,379.313,113.141,379.313z"/>
					</g>
					<g>
						<path style="fill:#7229B5;" d="M113.481,378.779c0,0-21.931-11.424-21.311-3.527
							C92.791,383.149,113.481,378.779,113.481,378.779z"/>
					</g>
				</g>
				<g>
					<g>
						<path style="fill:#7229B5;" d="M122.456,389.22c0,0,9.757-18.73,3.012-18.201C118.724,371.549,122.456,389.22,122.456,389.22z
							"/>
					</g>
					<g>
						<path style="fill:#7229B5;" d="M122.873,388.691c0,0-18.731-9.757-18.201-3.012
							C105.202,392.423,122.873,388.691,122.873,388.691z"/>
					</g>
				</g>
			</g>
		</g>
		<path style="fill:#7229B5;" d="M70.008,292.182c0,0-1.108-35.897-8.112-34.77C54.893,258.538,70.008,292.182,70.008,292.182z"/>
		<path style="fill:none;stroke:#7229B5;stroke-miterlimit:10;" d="M68.366,284.546c0,0,10.108,81.845,81.612,124.798"/>
	</g>
	<g>
		<g>
			<g>
				<path style="fill:#F5E073;" d="M116.969,414.207c-3.024,0-5.484-2.835-5.484-6.319v-18.73c0-3.484,2.461-6.319,5.484-6.319
					h12.929c3.024,0,5.484,2.835,5.484,6.319v18.73c0,3.484-2.461,6.319-5.484,6.319H116.969z M120.371,390.059
					c-1.359,0-2.464,1.316-2.464,2.936v11.057c0,1.618,1.105,2.935,2.464,2.935h7.689c1.359,0,2.464-1.316,2.464-2.935v-11.057
					c0-1.619-1.105-2.936-2.464-2.936H120.371z"/>
				<path style="fill:#7229B5;" d="M129.898,383.338c2.753,0,4.985,2.605,4.985,5.819v18.731c0,3.214-2.232,5.819-4.985,5.819
					h-12.929c-2.753,0-4.985-2.605-4.985-5.819v-18.731c0-3.214,2.232-5.819,4.985-5.819H129.898 M120.371,407.486h7.689
					c1.637,0,2.964-1.538,2.964-3.435v-11.057c0-1.897-1.327-3.435-2.964-3.435h-7.689c-1.637,0-2.965,1.538-2.965,3.435v11.057
					C117.406,405.948,118.734,407.486,120.371,407.486 M129.898,382.338h-12.929c-3.3,0-5.985,3.059-5.985,6.819v18.731
					c0,3.76,2.685,6.819,5.985,6.819h12.929c3.3,0,5.985-3.059,5.985-6.819v-18.731
					C135.883,385.397,133.198,382.338,129.898,382.338L129.898,382.338z M120.371,406.486c-1.083,0-1.965-1.092-1.965-2.435v-11.057
					c0-1.343,0.881-2.435,1.965-2.435h7.689c1.083,0,1.964,1.092,1.964,2.435v11.057c0,1.343-0.881,2.435-1.964,2.435H120.371
					L120.371,406.486z"/>
			</g>
			<g>
				<path style="fill:#F5E073;" d="M136.281,426.015c-5.943,0-10.777-4.835-10.777-10.777v-39.876c0-0.276,0.224-0.5,0.5-0.5h36.913
					c0.276,0,0.5,0.224,0.5,0.5v39.876c0,5.942-4.835,10.777-10.777,10.777H136.281z"/>
				<path style="fill:#7229B5;" d="M162.916,375.361v39.876c0,5.679-4.599,10.277-10.277,10.277h-16.358
					c-5.679,0-10.277-4.599-10.277-10.277v-39.876H162.916 M162.916,374.361h-36.912c-0.552,0-1,0.448-1,1v39.876
					c0,6.218,5.059,11.277,11.277,11.277h16.358c6.218,0,11.277-5.059,11.277-11.277v-39.876
					C163.916,374.809,163.468,374.361,162.916,374.361L162.916,374.361z"/>
			</g>
		</g>
		<g style="opacity:0.75;">
			<path style="fill:#F5E073;" d="M149.938,425.515h-13.657c-5.679,0-10.277-4.599-10.277-10.277v-39.876h16.593
				C141.17,387.037,138.83,416.401,149.938,425.515z"/>
		</g>
	</g>
	<g>
		<path style="fill:#B8E072;" d="M539.708,379.646c0,0-24.8-34.319-11.523-36.073c13.277-1.754,17.462,9.534,17.462,9.534
			s-10.499-28.422-0.21-28.869c5.762-0.25,13.173,17.173,13.173,17.173s-10.152-50.194,11.178-50.194
			c4.76,0,17.267,12.525,11.505,50.352c0,0,6.764-20.542,20.04-14.78c13.277,5.762-11.022,29.309-11.022,29.309
			s17.034-17.786,24.049-7.515c7.014,10.271-21.854,31.063-21.854,31.063H539.708z"/>
		<path style="fill:none;stroke:#7229B5;stroke-linecap:round;stroke-linejoin:round;stroke-miterlimit:10;" d="M601.333,326.789
			c13.277,5.762-11.022,29.309-11.022,29.309s17.034-17.786,24.049-7.515"/>
		<path style="fill:none;stroke:#7229B5;stroke-linecap:round;stroke-linejoin:round;stroke-miterlimit:10;" d="M528.185,343.573
			c13.277-1.754,17.462,9.534,17.462,9.534s-10.499-28.422-0.21-28.869c5.762-0.25,13.173,17.173,13.173,17.173
			s-10.152-50.194,11.178-50.194"/>
		<g>
			<path style="fill:#F5E073;" d="M566.793,430.731c-8.429,0-15.629-2.492-21.399-7.405c-10.391-8.849-15.659-24.939-15.659-47.822
				c0-0.276,0.224-0.5,0.5-0.5h74.905c0.276,0,0.5,0.224,0.5,0.5c0,45.77-21.23,54.175-33.885,55.112
				c-1.322,0.102-2.421,0.114-3.23,0.114L566.793,430.731z"/>
			<path style="fill:#7229B5;" d="M605.139,375.504c0,47.716-23.131,53.852-33.422,54.613c-1.286,0.099-2.367,0.113-3.183,0.113
				c-0.326,0-0.61-0.002-0.848-0.002c-0.248,0-0.548,0.003-0.894,0.003c-7.454,0-36.558-1.187-36.558-54.727H605.139
				 M605.139,374.504h-74.905c-0.552,0-1,0.448-1,1c0,48.487,23.531,55.727,37.558,55.727l0.525-0.001l0.369-0.001l0.353,0.001
				l0.495,0.001c0.815,0,1.923-0.013,3.26-0.116c12.825-0.949,34.345-9.437,34.345-55.611
				C606.139,374.951,605.691,374.504,605.139,374.504L605.139,374.504z M605.139,376.504h0.005H605.139L605.139,376.504z"/>
		</g>
		<g style="opacity:0.75;">
			<path style="fill:#F5E073;" d="M571.717,430.117c-1.801,0.138-3.199,0.111-4.031,0.111c-5.582,0-37.453,1.302-37.453-54.724
				h25.887C556.121,375.504,548.974,415.671,571.717,430.117z"/>
		</g>
	</g>
	<g>
		<g>
			<g>
				<path style="fill:#FFFFFF;" d="M418.212,237.064c-0.276,0-0.5-0.224-0.5-0.5V172.66c0-0.276,0.224-0.5,0.5-0.5h63.905
					c0.276,0,0.5,0.224,0.5,0.5v63.905c0,0.276-0.224,0.5-0.5,0.5H418.212z"/>
				<path style="fill:#7229B5;" d="M482.117,172.659v63.905h-63.905v-63.905H482.117 M482.117,171.659h-63.905c-0.552,0-1,0.448-1,1
					v63.905c0,0.552,0.448,1,1,1h63.905c0.552,0,1-0.448,1-1v-63.905C483.117,172.107,482.67,171.659,482.117,171.659
					L482.117,171.659z"/>
			</g>
			<g>
				<path style="fill:#381459;" d="M450.017,188.301c-0.004-0.249-0.133-0.475-0.343-0.608c-2.001-1.267-12.355-6.932-14.979,9.563
					c-1.197,7.522,2.958,18.682-0.472,21.708c-0.497,0.438-0.312,1.242,0.347,1.316c3.604,0.404,9.57,0.532,15.502-1.731
					c0.291-0.111,0.483-0.399,0.478-0.711L450.017,188.301z"/>
				<path style="fill:#FAAD3B;" d="M444.929,211.865c0,0-8.911,6.785-6.336,13.635c2.575,6.85,9.649-1.123,9.649-1.123
					L444.929,211.865z"/>
				<path style="fill:#381459;" d="M449.869,188.301c0.004-0.249,0.133-0.475,0.343-0.608c2.001-1.267,12.355-6.932,14.979,9.563
					c1.195,7.514-2.574,18.909,0.965,22.032c0.465,0.411,0.164,1.194-0.454,1.243c-3.759,0.301-9.942,0.288-15.888-1.984
					c-0.291-0.111-0.482-0.399-0.476-0.71L449.869,188.301z"/>
				<path style="fill:#FAAD3B;" d="M454.914,211.865c0,0,8.911,6.785,6.336,13.635c-2.574,6.85-9.649-1.123-9.649-1.123
					L454.914,211.865z"/>
				<polygon style="fill:#7229B5;" points="445.363,210.182 438.593,237.063 462.525,237.063 454.594,210.182 				"/>
				<path style="fill:#FAAD3B;" d="M462.168,200.437c0,1.198-0.175,2.342-0.498,3.432c-0.336,1.171-0.848,2.261-1.494,3.243
					c-2.167,3.311-5.908,5.477-10.161,5.477c-3.809,0-7.2-1.736-9.434-4.481c-0.767-0.929-1.386-1.978-1.83-3.109
					c-0.592-1.413-0.902-2.947-0.902-4.562c0-6.715,5.451-12.166,12.166-12.166S462.168,193.722,462.168,200.437z"/>
				<path style="fill:#381459;" d="M462.523,200.438c0,1.233-0.18,2.41-0.513,3.532c-5.429-1.634-11.752-4.021-12.002-11.598
					c0,0-1.71,9.381-11.586,12.761c-0.609-1.454-0.928-3.033-0.928-4.695c0-6.912,5.61-12.521,12.521-12.521
					S462.523,193.526,462.523,200.438z"/>
			</g>
		</g>
	</g>
	<path style="fill:#221D53;" d="M288.144,306.986"/>
	<g>
		<path style="fill:#FFFFFF;" d="M196.956,214.896c-0.993-13.09-11.904-23.408-25.249-23.408c-13.344,0-24.255,10.318-25.248,23.408
			H196.956z"/>
		<path style="fill:#FFFFFF;" d="M224.505,214.896c2.316-3.825,3.673-8.294,3.673-13.091c0-13.998-11.348-25.346-25.346-25.346
			s-25.346,11.348-25.346,25.346c0,4.797,1.357,9.267,3.673,13.091H224.505z"/>
		<path style="fill:#FFFFFF;" d="M254.411,214.896c-1.913-12.104-12.362-21.369-25.004-21.369c-12.642,0-23.091,9.265-25.004,21.369
			H254.411z"/>
	</g>
	<g>
		<path style="fill:#FFFFFF;" d="M530.23,268.269c-0.83-10.942-9.951-19.567-21.105-19.567c-11.154,0-20.275,8.625-21.105,19.567
			H530.23z"/>
		<path style="fill:#FFFFFF;" d="M553.258,268.269c1.936-3.197,3.07-6.933,3.07-10.943c0-11.701-9.486-21.187-21.187-21.187
			c-11.701,0-21.187,9.486-21.187,21.187c0,4.01,1.135,7.746,3.07,10.943H553.258z"/>
		<path style="fill:#FFFFFF;" d="M578.257,268.269c-1.599-10.118-10.334-17.862-20.901-17.862c-10.567,0-19.302,7.745-20.901,17.862
			H578.257z"/>
	</g>
	<g>
		<polygon style="fill:#7229B5;" points="524.42,309.785 506.28,425.515 328.45,426.625 349.68,309.785 		"/>
	</g>
	<path style="fill:#6D27AD;" d="M506.28,425.515l-177.83,1.11l21.23-116.84h39.92C390.75,336.225,403.5,407.915,506.28,425.515z"/>
	<polyline style="fill:none;stroke:#6725A3;stroke-linecap:round;stroke-linejoin:round;stroke-miterlimit:10;" points="
		523.993,309.785 349.685,309.785 328.448,426.624 	"/>
	
		<rect x="93.048" y="425.52" style="fill:#EDEDED;stroke:#7229B5;stroke-linecap:round;stroke-linejoin:round;stroke-miterlimit:10;" width="548.979" height="26.312"/>
	<g>
		<path style="fill:#7229B5;" d="M253.474,97.406h-96.96c-9.465,0-17.139,7.673-17.139,17.139v37.004
			c0,9.465,7.673,17.139,17.139,17.139h72.218l23.495,17.042l-5.6-17.042h6.847c9.465,0,17.139-7.673,17.139-17.139v-37.004
			C270.612,105.08,262.939,97.406,253.474,97.406z"/>
		<path style="fill:#FFFFFF;stroke:#7229B5;stroke-linecap:round;stroke-linejoin:round;stroke-miterlimit:10;" d="M260.73,94.057
			h-96.96c-9.465,0-17.139,7.673-17.139,17.139v37.004c0,9.465,7.673,17.139,17.139,17.139h72.217l23.495,17.042l-5.6-17.042h6.847
			c9.465,0,17.139-7.673,17.139-17.139v-37.004C277.868,101.73,270.195,94.057,260.73,94.057z"/>
		<g>
			<g>
				
					<line style="fill:none;stroke:#7229B5;stroke-linecap:round;stroke-linejoin:round;stroke-miterlimit:10;" x1="157.875" y1="128.864" x2="253.344" y2="128.864"/>
			</g>
			
				<line style="fill:none;stroke:#7229B5;stroke-linecap:round;stroke-linejoin:round;stroke-miterlimit:10;" x1="157.875" y1="109.025" x2="207.088" y2="109.025"/>
			
				<line style="fill:none;stroke:#7229B5;stroke-linecap:round;stroke-linejoin:round;stroke-miterlimit:10;" x1="157.984" y1="122.634" x2="217.969" y2="122.634"/>
			
				<line style="fill:none;stroke:#7229B5;stroke-linecap:round;stroke-linejoin:round;stroke-miterlimit:10;" x1="158.164" y1="135.477" x2="237.659" y2="135.477"/>
			
				<line style="fill:none;stroke:#7229B5;stroke-linecap:round;stroke-linejoin:round;stroke-miterlimit:10;" x1="158.282" y1="142.09" x2="252.59" y2="142.09"/>
			
				<line style="fill:none;stroke:#7229B5;stroke-linecap:round;stroke-linejoin:round;stroke-miterlimit:10;" x1="158.288" y1="148.703" x2="253.359" y2="148.703"/>
			
				<line style="fill:none;stroke:#7229B5;stroke-linecap:round;stroke-linejoin:round;stroke-miterlimit:10;" x1="158.337" y1="115.638" x2="253.095" y2="115.638"/>
		</g>
	</g>
</g>
</svg>
